# AST/ASF file generated using VICON BodyLanguage
# -----------------------------------------------
:version 1.10
:name VICON
:units
  mass 1.0
  length 0.45
  angle deg
:documentation
   .ast/.asf automatically generated from VICON data using
   VICON BodyBuilder and BodyLanguage model FoxedUp or BRILLIANT.MOD
:root
   order TX TY TZ RX RY RZ
   axis XYZ
   position 0 0 0  
   orientation 0 0 0 
:bonedata
  begin
     id 1 
     name lhipjoint
     direction 0.702568 -0.596508 0.388042 
     length 2.56661 
     axis 0 0 0  XYZ
  end
  begin
     id 2 
     name lfemur
     direction 0.34202 -0.939693 0  
     length 6.58374  
     axis 0 0 20  XYZ
    dof rx ry rz
    limits (-160.0 20.0)
           (-70.0 70.0)
           (-60.0 70.0)
  end
  begin
     id 3 
     name ltibia
     direction 0.34202 -0.939693 0   
     length 6.62538   
     axis 0 0 20   XYZ
    dof rx
    limits (-10.0 170.0)
  end
  begin
     id 4 
     name lfoot
     direction 0.10455 -0.287249 0.952133   
     length 2.26699   
     axis -90 7.62852e-016 20   XYZ
    dof rx rz
    limits (-45.0 90.0)
           (-70.0 20.0)
  end
  begin
     id 5 
     name ltoes
     direction 1.53572e-011 -4.22322e-011 1   
     length 1.12949   
     axis -90 7.62852e-016 20   XYZ
    dof rx
    limits (-90.0 20.0)
  end
  begin
     id 6 
     name rhipjoint
     direction -0.728055 -0.574632 0.373811   
     length 2.66432  
     axis 0 0 0  XYZ 
  end
  begin
     id 7 
     name rfemur
     direction -0.34202 -0.939693 0   
     length 6.66732   
     axis 0 0 -20   XYZ
    dof rx ry rz
    limits (-160.0 20.0)
           (-70.0 70.0)
           (-70.0 60.0)
  end
  begin
     id 8 
     name rtibia
     direction -0.34202 -0.939693 0   
     length 6.59288   
     axis 0 0 -20   XYZ
    dof rx
    limits (-10.0 170.0)
 end
 begin
     id 9 
     name rfoot
     direction -0.119193 -0.327479 0.93731   
     length 2.38061  
     axis -90 -7.62852e-016 -20   XYZ
    dof rx rz
    limits (-45.0 90.0)
           (-20.0 70.0)
  end
  begin
     id 10 
     name rtoes
     direction -1.53547e-011 -4.21827e-011 1   
     length 1.17899   
     axis -90 -7.62852e-016 -20   XYZ
    dof rx
    limits (-90.0 20.0)
  end
  begin
     id 11 
     name lowerback
     direction -0.000416114 0.999912 -0.0132284   
     length 2.12109   
     axis 0 0 0   XYZ
    dof rx ry rz
    limits (-20.0 45.0)
           (-30.0 30.0)
           (-30.0 30.0)
  end
  begin
     id 12 
     name upperback
     direction -0.00136371 0.99809 0.0617608   
     length 2.10067   
     axis 0 0 0   XYZ
    dof rx ry rz
    limits (-20.0 45.0)
           (-30.0 30.0)
           (-30.0 30.0)
  end
  begin
     id 13 
     name thorax
     direction -3.43026e-005 0.997776 0.0666515   
     length 2.10618   
     axis 0 0 0   XYZ
    dof rx ry rz
    limits (-20.0 45.0)
           (-30.0 30.0)
           (-30.0 30.0)
  end
  begin
     id 14 
     name lowerneck
     direction 0.0398646 0.998418 0.0396592   
     length 1.83817   
     axis 0 0 0   XYZ
    dof rx ry rz
    limits (-20.0 45.0)
           (-30.0 30.0)
           (-30.0 30.0)
  end
  begin
     id 15 
     name upperneck
     direction -0.0367268 0.961527 -0.272244   
     length 1.81975   
     axis 0 0 0   XYZ
    dof rx ry rz
    limits (-20.0 45.0)
           (-30.0 30.0)
           (-30.0 30.0)
  end
  begin
     id 16
     name head
     direction -0.0182665 0.99536 -0.0944669  
     length 1.86026  
     axis 0 0 0   XYZ
    dof rx ry rz
    limits (-20.0 45.0)
           (-30.0 30.0)
           (-30.0 30.0)
  end
  begin
     id 17 
     name lclavicle
     direction 0.924239 0.361045 0.124212  
     length 3.26878  
     axis 0 0 0   XYZ
    dof ry rz
    limits (-20.0 10.0)
           (0.0 20.0)
  end
  begin
     id 18 
     name lhumerus
     direction 1 -4.48968e-011 -2.56583e-027   
     length 4.58538   
     axis 180 -30 -90   XYZ
    dof rx ry rz
    limits (-60.0 90.0)
           (-90.0 90.0)
           (-90.0 90.0)
  end
  begin
     id 19
     name lradius
     direction 1 -4.4898e-011 -5.50375e-027   
     length 2.68935   
     axis 180 -30 -90   XYZ
    dof rx
    limits (-10.0 170.0)
  end
  begin
     id 20
     name lwrist
     direction 1 -4.48939e-011 -1.48955e-026   
     length 1.34468   
     axis 9.0955e-015 90 90   XYZ
    dof ry
    limits (-180.0 0.0)
 end
  begin
     id 21 
     name lhand
     direction 1 -4.48936e-011 -2.97907e-026   
     length 0.585058   
     axis 1.90115e-014 90 90   XYZ
    dof rx rz
    limits (-90.0 90.0)
           (-45.0 45.0)
  end
  begin
     id 22 
     name lfingers
     direction 1 -4.49082e-011 -5.96235e-026   
     length 0.471689   
     axis 3.80223e-014 90 90   XYZ
    dof rx
    limits (0.0 90.0)
  end
  begin
     id 23
     name lthumb
     direction 0.707107 -6.3489e-011 0.707107   
     length 0.677253   
     axis -90 45 -3.84942e-014   XYZ
    dof rx rz
    limits (-45.0 45.0)
           (-45.0 45.0)
  end
  begin
     id 24 
     name rclavicle
     direction -0.923098 0.371783 0.0983239   
     length 3.19656  
     axis 0 0 0   XYZ 
    dof ry rz
    limits (-10.0 20.0)
           (-20.0 0.0)
  end
  begin
     id 25 
     name rhumerus
     direction -1 -4.48976e-011 -2.5492e-027  
     length 4.4745   
     axis 180 30 90   XYZ
    dof rx ry rz
    limits (-90.0 60.0)
           (-90.0 90.0)
           (-90.0 90.0)
  end
  begin
     id 26 
     name rradius
     direction -1 -4.48941e-011 -4.36555e-027   
     length 2.93896   
     axis 180 30 90   XYZ
    dof rx
    limits (-10.0 170.0)
  end
  begin
     id 27 
     name rwrist
     direction -1 -4.49044e-011 -1.49032e-026   
     length 1.46948   
     axis 9.0955e-015 -90 -90   XYZ
    dof ry
    limits (-180.0 0.0)
  end
  begin
     id 28
     name rhand
     direction -1 -4.48826e-011 -2.97749e-026   
     length 0.405092   
     axis 1.90115e-014 -90 -90   XYZ
    dof rx rz
    limits (-90.0 90.0)
           (-45.0 45.0)
  end
  begin
     id 29
     name rfingers
     direction -1 -4.49209e-011 -5.96602e-026   
     length 0.326596   
     axis 3.80223e-014 -90 -90   XYZ
    dof rx
    limits (0.0 90.0)
  end
  begin
     id 30
     name rthumb
     direction -0.707107 -6.34776e-011 0.707107   
     length 0.468928   
     axis -90 -45 3.84942e-014   XYZ
    dof rx rz
    limits (-45.0 45.0)
           (-45.0 45.0)
  end
:hierarchy
  begin
    root lhipjoint rhipjoint lowerback
    lhipjoint lfemur
    lfemur ltibia
    ltibia lfoot
    lfoot ltoes
    rhipjoint rfemur
    rfemur rtibia
    rtibia rfoot
    rfoot rtoes
    lowerback upperback
    upperback thorax
    thorax lowerneck lclavicle rclavicle
    lowerneck upperneck
    upperneck head
    lclavicle lhumerus
    lhumerus lradius
    lradius lwrist
    lwrist lhand lthumb
    lhand lfingers
    rclavicle rhumerus
    rhumerus rradius
    rradius rwrist
    rwrist rhand rthumb
    rhand rfingers
  end

#!OML:ASF H:\Punching\Project 1\Capture day 1\Session 1\female.ASF
:FULLY-SPECIFIED
:DEGREES
845
root -0.909999 15.5887 8.87948 12.2311 -10.0774 -0.870983
lowerback -0.231235 -3.86971 3.05229
upperback -7.08985 -5.01022 1.78601
thorax -7.37567 -2.62083 0.487652
lowerneck 2.86705 13.7145 19.5631
upperneck 27.0082 22.2037 -14.7135
head 12.45 11.0218 -5.99488
rclavicle -1.38528e-014 7.95139e-016
rhumerus 6.77951 45.6584 -84.7637
rradius 115.688
rwrist -0.51792
rhand -23.9582 5.12744
rfingers 7.12502
rthumb 2.51774 -24.8375
lclavicle -1.38528e-014 7.95139e-016
lhumerus 15.5219 -15.0315 85.6003
lradius 92.8139
lwrist 14.1804
lhand -14.8448 11.9653
lfingers 7.12502
lthumb 11.3144 41.6401
rfemur -8.13654 6.14154 15.3707
rtibia 20.9495
rfoot -19.7493 -17.7045
rtoes -10.0418
lfemur -33.5322 0.318093 -6.52056
ltibia 29.5191
lfoot -8.82396 16.5371
ltoes -8.34189
846
root -0.857754 15.5851 8.95668 12.3851 -10.288 -0.863176
lowerback -0.269134 -3.96129 3.0123
upperback -7.14457 -5.13422 1.827
thorax -7.40795 -2.6795 0.560776
lowerneck 3.17626 13.8611 19.6765
upperneck 26.8823 22.4807 -14.8473
head 12.4364 11.1643 -6.02893
rclavicle 4.40929e-014 -8.34896e-015
rhumerus 7.38206 46.5095 -83.5157
rradius 117.15
rwrist -0.195825
rhand -23.6611 6.17439
rfingers 7.12502
rthumb 2.80467 -23.7869
lclavicle 4.40929e-014 -8.34896e-015
lhumerus 16.2376 -13.9514 84.3577
lradius 93.5605
lwrist 13.4162
lhand -15.1508 11.7125
lfingers 7.12502
lthumb 11.0193 41.4032
rfemur -7.69732 6.33996 15.0822
rtibia 20.2057
rfoot -19.5523 -17.7965
rtoes -10.343
lfemur -33.5318 -0.542072 -5.71604
ltibia 27.5916
lfoot -7.50911 17.4672
ltoes -7.55273
847
root -0.802872 15.5793 9.03686 12.5312 -10.5125 -0.87678
lowerback -0.330666 -4.05526 2.9928
upperback -7.18955 -5.26093 1.88276
thorax -7.41634 -2.74018 0.63561
lowerneck 3.50264 14.0073 19.7707
upperneck 26.7455 22.7593 -14.9838
head 12.414 11.307 -6.06227
rclavicle 4.47141e-014 -1.98785e-014
rhumerus 7.94165 47.2604 -82.2092
rradius 118.48
rwrist 0.206013
rhand -23.4173 7.44695
rfingers 7.12502
rthumb 3.04011 -22.5111
lclavicle 4.47141e-014 -1.98785e-014
lhumerus 16.8904 -12.7503 83.0355
lradius 94.3164
lwrist 12.7914
lhand -15.459 11.5228
lfingers 7.12502
lthumb 10.722 41.2292
rfemur -7.22299 6.54529 14.7994
rtibia 19.4272
rfoot -19.346 -17.8695
rtoes -10.6802
lfemur -33.5493 -1.3583 -4.91873
ltibia 25.9375
lfoot -6.21752 18.2583
ltoes -6.7578
848
root -0.745253 15.5709 9.11973 12.6662 -10.7522 -0.910395
lowerback -0.405957 -4.14145 3.00027
upperback -7.22132 -5.37686 1.93957
thorax -7.4046 -2.79706 0.693938
lowerneck 3.82212 14.1477 19.8579
upperneck 26.6026 23.0248 -15.1126
head 12.3861 11.4437 -6.09346
rclavicle 2.3966e-014 -2.38542e-015
rhumerus 8.43565 47.9287 -80.8503
rradius 119.724
rwrist 0.745811
rhand -23.273 8.51028
rfingers 7.12502
rthumb 3.17942 -21.4458
lclavicle 2.3966e-014 -2.38542e-015
lhumerus 17.4797 -11.4619 81.6419
lradius 95.0779
lwrist 12.3316
lhand -15.7746 11.4016
lfingers 7.12502
lthumb 10.4176 41.1235
rfemur -6.71629 6.76364 14.5212
rtibia 18.6248
rfoot -19.136 -17.9312
rtoes -11.0379
lfemur -33.5938 -2.0565 -4.18434
ltibia 24.5992
lfoot -5.02143 18.8699
ltoes -6.05615
849
root -0.68484 15.5597 9.20527 12.7859 -11.0093 -0.959389
lowerback -0.494346 -4.20574 3.03871
upperback -7.23361 -5.46397 1.98028
thorax -7.36827 -2.84197 0.714204
lowerneck 4.1131 14.2724 19.958
upperneck 26.4574 23.2575 -15.2274
head 12.3561 11.5667 -6.12508
rclavicle 1.45361e-015 -4.77083e-015
rhumerus 8.83167 48.4668 -79.4647
rradius 120.893
rwrist 1.34659
rhand -23.1953 9.37255
rfingers 7.12502
rthumb 3.25446 -20.5824
lclavicle 1.45361e-015 -4.77083e-015
lhumerus 18.0194 -10.1267 80.1805
lradius 95.8385
lwrist 12.0867
lhand -16.0721 11.325
lfingers 7.12502
lthumb 10.1306 41.0611
rfemur -6.18043 7.00082 14.2434
rtibia 17.812
rfoot -18.9276 -17.9887
rtoes -11.4217
lfemur -33.6732 -2.56294 -3.57368
ltibia 23.6058
lfoot -3.94052 19.2701
ltoes -5.51945
850
root -0.621595 15.5456 9.29365 12.884 -11.277 -1.02333
lowerback -0.59605 -4.23077 3.12563
upperback -7.21363 -5.49997 1.97979
thorax -7.29759 -2.8656 0.658612
lowerneck 4.32749 14.3708 20.0954
upperneck 26.3252 23.4312 -15.3091
head 12.3337 11.6643 -6.15433
rclavicle 2.19409e-014 -1.47101e-014
rhumerus 9.09654 48.8164 -78.0796
rradius 122.004
rwrist 1.92046
rhand -23.1163 10.0594
rfingers 7.12502
rthumb 3.3308 -19.8943
lclavicle 2.19409e-014 -1.47101e-014
lhumerus 18.5393 -8.81414 78.6481
lradius 96.5979
lwrist 12.0628
lhand -16.3684 11.3296
lfingers 7.12502
lthumb 9.84477 41.0794
rfemur -5.60957 7.25259 13.9688
rtibia 16.9997
rfoot -18.7288 -18.049
rtoes -11.8346
lfemur -33.7963 -2.81995 -3.13636
ltibia 22.9816
lfoot -2.95832 19.4228
ltoes -4.98739
851
root -0.555421 15.529 9.38519 12.9588 -11.5498 -1.08623
lowerback -0.697778 -4.22184 3.24617
upperback -7.17207 -5.49208 1.93546
thorax -7.21071 -2.87063 0.535062
lowerneck 4.46492 14.4444 20.2755
upperneck 26.2178 23.5486 -15.3523
head 12.3242 11.7383 -6.17941
rclavicle 4.9398e-014 3.97569e-016
rhumerus 9.18173 48.9696 -76.7453
rradius 123.05
rwrist 2.33227
rhand -22.9608 10.741
rfingers 7.12502
rthumb 3.48092 -19.2103
lclavicle 4.9398e-014 3.97569e-016
lhumerus 19.0166 -7.51873 77.0545
lradius 97.3599
lwrist 12.2564
lhand -16.6589 11.4012
lfingers 7.12502
lthumb 9.5645 41.1641
rfemur -5.00411 7.51047 13.681
rtibia 16.1934
rfoot -18.5503 -18.1116
rtoes -12.2545
lfemur -33.9767 -2.77315 -2.93865
ltibia 22.7482
lfoot -2.01412 19.2602
ltoes -4.40255
852
root -0.486352 15.5092 9.48004 13.0109 -11.8201 -1.15964
lowerback -0.796037 -4.17725 3.4138
upperback -7.11104 -5.43734 1.84947
thorax -7.11274 -2.85615 0.339017
lowerneck 4.52705 14.4908 20.5012
upperneck 26.1359 23.6067 -15.3562
head 12.3269 11.7876 -6.20118
rclavicle -6.69035e-014 2.38542e-015
rhumerus 9.04045 48.9441 -75.4924
rradius 124.051
rwrist 2.53912
rhand -22.7304 11.2893
rfingers 7.12502
rthumb 3.70349 -18.6583
lclavicle -6.69035e-014 2.38542e-015
lhumerus 19.4512 -6.24755 75.4182
lradius 98.1154
lwrist 12.6263
lhand -16.9424 11.5265
lfingers 7.12502
lthumb 9.29092 41.3018
rfemur -4.36088 7.77203 13.3951
rtibia 15.3946
rfoot -18.3985 -18.1776
rtoes -12.6563
lfemur -34.2191 -2.37426 -3.00702
ltibia 22.9222
lfoot -1.1102 18.7165
ltoes -3.74679
853
root -0.41452 15.4861 9.5783 13.0389 -12.0803 -1.23972
lowerback -0.885487 -4.12079 3.60514
upperback -7.04306 -5.36646 1.75324
thorax -7.01502 -2.83492 0.119031
lowerneck 4.56737 14.5226 20.7338
upperneck 26.0593 23.6351 -15.3394
head 12.327 11.8242 -6.22
rclavicle 1.54555e-014 -1.51076e-014
rhumerus 8.67925 48.8289 -74.3131
rradius 125.006
rwrist 2.493
rhand -22.4447 11.6751
rfingers 7.12502
rthumb 3.97938 -18.2674
lclavicle 1.54555e-014 -1.51076e-014
lhumerus 19.7945 -4.93329 73.7664
lradius 98.8694
lwrist 13.1255
lhand -17.2136 11.6952
lfingers 7.12502
lthumb 9.02927 41.482
rfemur -3.67462 8.02971 13.1095
rtibia 14.5997
rfoot -18.2687 -18.2492
rtoes -13.0568
lfemur -34.516 -1.61398 -3.36122
ltibia 23.5035
lfoot -0.316582 17.73
ltoes -3.05493
854
root -0.340204 15.4599 9.67956 13.0442 -12.3239 -1.32182
lowerback -0.943996 -4.06128 3.81133
upperback -6.98916 -5.28956 1.65777
thorax -6.95109 -2.81145 -0.10493
lowerneck 4.61826 14.5402 20.9507
upperneck 25.9926 23.6394 -15.2966
head 12.3172 11.851 -6.23283
rclavicle -5.6138e-014 2.38542e-015
rhumerus 8.04024 48.6905 -73.2479
rradius 125.91
rwrist 2.23478
rhand -22.2091 11.9407
rfingers 7.12502
rthumb 4.20685 -17.9975
lclavicle -5.6138e-014 2.38542e-015
lhumerus 19.9993 -3.57148 72.1208
lradius 99.6199
lwrist 13.6735
lhand -17.4877 11.8852
lfingers 7.12502
lthumb 8.76477 41.6832
rfemur -2.94274 8.28155 12.8221
rtibia 13.7961
rfoot -18.149 -18.3285
rtoes -13.4485
lfemur -34.8665 -0.564643 -3.96508
ltibia 24.4657
lfoot 0.268418 16.3085
ltoes -2.54763
855
root -0.263867 15.4315 9.78354 13.0254 -12.5482 -1.39638
lowerback -0.986893 -4.00473 4.01292
upperback -6.94216 -5.21559 1.57186
thorax -6.90171 -2.78871 -0.314504
lowerneck 4.69416 14.5466 21.1381
upperneck 25.9177 23.6289 -15.246
head 12.2901 11.8708 -6.24396
rclavicle 2.64632e-014 -8.74653e-015
rhumerus 7.15664 48.5566 -72.278
rradius 126.76
rwrist 1.80304
rhand -22.0943 12.0667
rfingers 7.12502
rthumb 4.31768 -17.8693
lclavicle 2.64632e-014 -8.74653e-015
lhumerus 20.0622 -2.15199 70.4929
lradius 100.362
lwrist 14.2046
lhand -17.7421 12.084
lfingers 7.12502
lthumb 8.51921 41.8921
rfemur -2.15635 8.52387 12.526
rtibia 12.9608
rfoot -18.0227 -18.4152
rtoes -13.8355
lfemur -35.2632 0.632264 -4.74006
ltibia 25.746
lfoot 0.468613 14.6367
ltoes -2.30118
856
root -0.186152 15.4021 9.88935 12.9872 -12.7479 -1.45854
lowerback -1.01185 -3.95719 4.19493
upperback -6.90215 -5.1524 1.50388
thorax -6.86645 -2.76951 -0.492298
lowerneck 4.79287 14.5484 21.2891
upperneck 25.8283 23.617 -15.2034
head 12.2481 11.8879 -6.25555
rclavicle 3.40791e-014 -1.63003e-014
rhumerus 6.04562 48.4461 -71.4011
rradius 127.554
rwrist 1.28617
rhand -22.0883 12.0759
rfingers 7.12502
rthumb 4.32352 -17.86
lclavicle 3.40791e-014 -1.63003e-014
lhumerus 19.9784 -0.670058 68.8861
lradius 101.097
lwrist 14.6762
lhand -17.977 12.29
lfingers 7.12502
lthumb 8.29254 42.1073
rfemur -1.30438 8.75366 12.2215
rtibia 12.0554
rfoot -17.8608 -18.513
rtoes -14.2221
lfemur -35.7023 1.82709 -5.59259
ltibia 27.2526
lfoot 0.206686 12.942
ltoes -2.26944
